<svg version="1.2" xmlns="http://www.w3.org/2000/svg" viewBox="0 0 628 396" width="628" height="396">
	<title>Light page</title>
	<defs>
		<clipPath clipPathUnits="userSpaceOnUse" id="cp1">
			<path d="m46 34h537c6.63 0 12 5.37 12 12v305c0 6.63-5.37 12-12 12h-537c-6.63 0-12-5.37-12-12v-305c0-6.63 5.37-12 12-12z"/>
		</clipPath>
		<filter x="-50%" y="-50%" width="200%" height="200%" id="f1" ><feDropShadow dx="0" dy="0" stdDeviation="0.4166666666666667" flood-color="#ffffff" flood-opacity=".2"/></filter>
		<filter x="-50%" y="-50%" width="200%" height="200%" id="f2" ><feDropShadow dx="0" dy="0" stdDeviation="13.333333333333334" flood-color="#020202" flood-opacity=".5"/></filter>
	</defs>
	<style>
		tspan { white-space:pre } 
		.s0 { filter: url(#f1) url(#f2);fill: #303030;stroke: #303030;stroke-linejoin: round;stroke-width: 3 } 
		.s1 { fill: #1b1b1b } 
		.s2 { fill: #ffffff } 
		.s3 { fill: #4f4f4f } 
	</style>
	<g id="Body">
		<g id="broswer &amp; bg">
			<g id="Browser">
				<g clip-path="url(#cp1)">
					<path id="Browser" class="s0" d="m46 34h537c6.6 0 12 5.4 12 12v305c0 6.6-5.4 12-12 12h-537c-6.6 0-12-5.4-12-12v-305c0-6.6 5.4-12 12-12z"/>
					<path id="screen" class="s1" d="m27 59.2h642v393h-642z"/>
				</g>
				<path id="Ellipse 795" class="s2" d="m49 44.2c1.7 0 3 1.3 3 3 0 1.7-1.3 3-3 3-1.7 0-3-1.3-3-3 0-1.7 1.3-3 3-3z"/>
				<path id="Ellipse 795 copy" class="s3" d="m59 44.2c1.7 0 3 1.3 3 3 0 1.7-1.3 3-3 3-1.7 0-3-1.3-3-3 0-1.7 1.3-3 3-3z"/>
				<path id="Ellipse 795 copy 2" class="s3" d="m69 44.2c1.7 0 3 1.3 3 3 0 1.7-1.3 3-3 3-1.7 0-3-1.3-3-3 0-1.7 1.3-3 3-3z"/>
			</g>
		</g>
	</g>
</svg>